<svg xmlns="http://www.w3.org/2000/svg" width="80" height="160">
<rect x="0" y="0" width="10" height="10" fill="#BD0000"/>
<rect x="10" y="0" width="10" height="10" fill="#BD0000"/>
<rect x="20" y="0" width="10" height="10" fill="#BD0000"/>
<rect x="30" y="0" width="10" height="10" fill="#BD0000"/>
<rect x="40" y="0" width="10" height="10" fill="#BD0000"/>
<rect x="50" y="0" width="10" height="10" fill="#BDBDBD"/>
<rect x="60" y="0" width="10" height="10" fill="#BDBDBD"/>
<rect x="70" y="0" width="10" height="10" fill="#BD0000"/>
<rect x="0" y="10" width="10" height="10" fill="#BD0000"/>
<rect x="10" y="10" width="10" height="10" fill="#BD0000"/>
<rect x="20" y="10" width="10" height="10" fill="#BDBDBD"/>
<rect x="30" y="10" width="10" height="10" fill="#BDBDBD"/>
<rect x="40" y="10" width="10" height="10" fill="#BDBDBD"/>
<rect x="50" y="10" width="10" height="10" fill="#BDBDBD"/>
<rect x="60" y="10" width="10" height="10" fill="#BDBDBD"/>
<rect x="70" y="10" width="10" height="10" fill="#BD0000"/>
<rect x="0" y="20" width="10" height="10" fill="#BD0000"/>
<rect x="10" y="20" width="10" height="10" fill="#BDBDBD"/>
<rect x="20" y="20" width="10" height="10" fill="#BDBDBD"/>
<rect x="30" y="20" width="10" height="10" fill="#BDBDBD"/>
<rect x="40" y="20" width="10" height="10" fill="#BDBDBD"/>
<rect x="50" y="20" width="10" height="10" fill="#BDBDBD"/>
<rect x="60" y="20" width="10" height="10" fill="#BD0000"/>
<rect x="70" y="20" width="10" height="10" fill="#BD0000"/>
<rect x="0" y="30" width="10" height="10" fill="#BD0000"/>
<rect x="10" y="30" width="10" height="10" fill="#BD0000"/>
<rect x="20" y="30" width="10" height="10" fill="#BDBDBD"/>
<rect x="30" y="30" width="10" height="10" fill="#BDBDBD"/>
<rect x="40" y="30" width="10" height="10" fill="#BD0000"/>
<rect x="50" y="30" width="10" height="10" fill="#BDBDBD"/>
<rect x="60" y="30" width="10" height="10" fill="#BD0000"/>
<rect x="70" y="30" width="10" height="10" fill="#BD0000"/>
<rect x="0" y="40" width="10" height="10" fill="#BD0000"/>
<rect x="10" y="40" width="10" height="10" fill="#BD0000"/>
<rect x="20" y="40" width="10" height="10" fill="#BDBDBD"/>
<rect x="30" y="40" width="10" height="10" fill="#BDBDBD"/>
<rect x="40" y="40" width="10" height="10" fill="#BDBDBD"/>
<rect x="50" y="40" width="10" height="10" fill="#BDBDBD"/>
<rect x="60" y="40" width="10" height="10" fill="#BDBDBD"/>
<rect x="70" y="40" width="10" height="10" fill="#BD0000"/>
<rect x="0" y="50" width="10" height="10" fill="#BD0000"/>
<rect x="10" y="50" width="10" height="10" fill="#BD0000"/>
<rect x="20" y="50" width="10" height="10" fill="#BDBDBD"/>
<rect x="30" y="50" width="10" height="10" fill="#BDBDBD"/>
<rect x="40" y="50" width="10" height="10" fill="#BDBDBD"/>
<rect x="50" y="50" width="10" height="10" fill="#BDBDBD"/>
<rect x="60" y="50" width="10" height="10" fill="#BD0000"/>
<rect x="70" y="50" width="10" height="10" fill="#BD0000"/>
<rect x="0" y="60" width="10" height="10" fill="#BD0000"/>
<rect x="10" y="60" width="10" height="10" fill="#BD0000"/>
<rect x="20" y="60" width="10" height="10" fill="#BD0000"/>
<rect x="30" y="60" width="10" height="10" fill="#BDBDBD"/>
<rect x="40" y="60" width="10" height="10" fill="#BDBDBD"/>
<rect x="50" y="60" width="10" height="10" fill="#BD0000"/>
<rect x="60" y="60" width="10" height="10" fill="#BD0000"/>
<rect x="70" y="60" width="10" height="10" fill="#BD0000"/>
<rect x="0" y="70" width="10" height="10" fill="#BD0000"/>
<rect x="10" y="70" width="10" height="10" fill="#BD0000"/>
<rect x="20" y="70" width="10" height="10" fill="#BDBDBD"/>
<rect x="30" y="70" width="10" height="10" fill="#BDBDBD"/>
<rect x="40" y="70" width="10" height="10" fill="#BDBDBD"/>
<rect x="50" y="70" width="10" height="10" fill="#BDBDBD"/>
<rect x="60" y="70" width="10" height="10" fill="#BD0000"/>
<rect x="70" y="70" width="10" height="10" fill="#BD0000"/>
<rect x="0" y="80" width="10" height="10" fill="#BD0000"/>
<rect x="10" y="80" width="10" height="10" fill="#BDBDBD"/>
<rect x="20" y="80" width="10" height="10" fill="#BDBDBD"/>
<rect x="30" y="80" width="10" height="10" fill="#BDBDBD"/>
<rect x="40" y="80" width="10" height="10" fill="#BDBDBD"/>
<rect x="50" y="80" width="10" height="10" fill="#BDBDBD"/>
<rect x="60" y="80" width="10" height="10" fill="#BDBDBD"/>
<rect x="70" y="80" width="10" height="10" fill="#BD0000"/>
<rect x="0" y="90" width="10" height="10" fill="#BD0000"/>
<rect x="10" y="90" width="10" height="10" fill="#BDBDBD"/>
<rect x="20" y="90" width="10" height="10" fill="#BDBDBD"/>
<rect x="30" y="90" width="10" height="10" fill="#BDBDBD"/>
<rect x="40" y="90" width="10" height="10" fill="#BDBDBD"/>
<rect x="50" y="90" width="10" height="10" fill="#BDBDBD"/>
<rect x="60" y="90" width="10" height="10" fill="#BDBDBD"/>
<rect x="70" y="90" width="10" height="10" fill="#BD0000"/>
<rect x="0" y="100" width="10" height="10" fill="#BDBDBD"/>
<rect x="10" y="100" width="10" height="10" fill="#BDBDBD"/>
<rect x="20" y="100" width="10" height="10" fill="#BDBDBD"/>
<rect x="30" y="100" width="10" height="10" fill="#BDBDBD"/>
<rect x="40" y="100" width="10" height="10" fill="#BD0000"/>
<rect x="50" y="100" width="10" height="10" fill="#BDBDBD"/>
<rect x="60" y="100" width="10" height="10" fill="#BDBDBD"/>
<rect x="70" y="100" width="10" height="10" fill="#BDBDBD"/>
<rect x="0" y="110" width="10" height="10" fill="#BDBDBD"/>
<rect x="10" y="110" width="10" height="10" fill="#BDBDBD"/>
<rect x="20" y="110" width="10" height="10" fill="#BDBDBD"/>
<rect x="30" y="110" width="10" height="10" fill="#BDBDBD"/>
<rect x="40" y="110" width="10" height="10" fill="#BDBDBD"/>
<rect x="50" y="110" width="10" height="10" fill="#BD0000"/>
<rect x="60" y="110" width="10" height="10" fill="#BDBDBD"/>
<rect x="70" y="110" width="10" height="10" fill="#BDBDBD"/>
<rect x="0" y="120" width="10" height="10" fill="#BD0000"/>
<rect x="10" y="120" width="10" height="10" fill="#BD0000"/>
<rect x="20" y="120" width="10" height="10" fill="#BDBDBD"/>
<rect x="30" y="120" width="10" height="10" fill="#BDBDBD"/>
<rect x="40" y="120" width="10" height="10" fill="#BDBDBD"/>
<rect x="50" y="120" width="10" height="10" fill="#BDBDBD"/>
<rect x="60" y="120" width="10" height="10" fill="#BD0000"/>
<rect x="70" y="120" width="10" height="10" fill="#BD0000"/>
<rect x="0" y="130" width="10" height="10" fill="#BD0000"/>
<rect x="10" y="130" width="10" height="10" fill="#BDBDBD"/>
<rect x="20" y="130" width="10" height="10" fill="#BDBDBD"/>
<rect x="30" y="130" width="10" height="10" fill="#BDBDBD"/>
<rect x="40" y="130" width="10" height="10" fill="#BD0000"/>
<rect x="50" y="130" width="10" height="10" fill="#BDBDBD"/>
<rect x="60" y="130" width="10" height="10" fill="#BDBDBD"/>
<rect x="70" y="130" width="10" height="10" fill="#BD0000"/>
<rect x="0" y="140" width="10" height="10" fill="#BD0000"/>
<rect x="10" y="140" width="10" height="10" fill="#BDBDBD"/>
<rect x="20" y="140" width="10" height="10" fill="#BDBDBD"/>
<rect x="30" y="140" width="10" height="10" fill="#BD0000"/>
<rect x="40" y="140" width="10" height="10" fill="#BDBDBD"/>
<rect x="50" y="140" width="10" height="10" fill="#BDBDBD"/>
<rect x="60" y="140" width="10" height="10" fill="#BDBDBD"/>
<rect x="70" y="140" width="10" height="10" fill="#BD0000"/>
<rect x="0" y="150" width="10" height="10" fill="#BD0000"/>
<rect x="10" y="150" width="10" height="10" fill="#BDBDBD"/>
<rect x="20" y="150" width="10" height="10" fill="#BDBDBD"/>
<rect x="30" y="150" width="10" height="10" fill="#BDBDBD"/>
<rect x="40" y="150" width="10" height="10" fill="#BD0000"/>
<rect x="50" y="150" width="10" height="10" fill="#BDBDBD"/>
<rect x="60" y="150" width="10" height="10" fill="#BDBDBD"/>
<rect x="70" y="150" width="10" height="10" fill="#BDBDBD"/>
</svg>